<svg width="1em" height="1em" viewBox="0 0 24 24" xmlns="http://www.w3.org/2000/svg" class="w-5 h-5  pointer-events-none"><path d="M9.883 3l.125.008a1 1 0 01.875.992l-.002.055-.177 1.612-.008.133a1.2 1.2 0 001.06 1.192l.14.008h1.586a1.2 1.2 0 001.169-.93l.023-.137.227-2.043.022-.124a1 1 0 01.834-.757L15.895 3h.988l.125.008a1 1 0 01.875.992l-.002.055-.177 1.612a1.2 1.2 0 001.052 1.325l.14.008H20l.125.008a1 1 0 01.867.867L21 8v1l-.008.125c-.05.407-.346.738-.734.841l-.133.026L20 10h-1.704a1.2 1.2 0 00-1.169.93l-.023.137-.178 1.6-.008.133a1.2 1.2 0 001.06 1.192l.14.008H19l.125.008a1 1 0 01.867.867L20 15v1l-.008.125c-.05.407-.346.738-.734.841l-.133.026L19 17h-1.482a1.2 1.2 0 00-1.169.93l-.023.137-.227 2.043-.025.136a1 1 0 01-.71.72l-.134.026-.125.008h-.988l-.125-.008a1 1 0 01-.875-.992l.002-.055.177-1.612.008-.133a1.2 1.2 0 00-1.06-1.192l-.14-.008h-1.586a1.2 1.2 0 00-1.169.93l-.023.137-.227 2.043-.025.136a1 1 0 01-.71.72l-.134.026-.125.008h-.988l-.125-.008A1 1 0 016.117 20l.002-.055.177-1.612a1.2 1.2 0 00-1.052-1.325L5.104 17H4l-.125-.008a1 1 0 01-.867-.867L3 16v-1l.008-.125a1 1 0 01.867-.867L4 14h1.704a1.2 1.2 0 001.169-.93l.023-.137.178-1.6.008-.133a1.2 1.2 0 00-1.06-1.192L5.881 10H5l-.125-.008a1 1 0 01-.867-.867L4 9V8l.008-.125a1 1 0 01.867-.867L5 7h1.482a1.2 1.2 0 001.169-.93l.023-.137.227-2.043.022-.124a1 1 0 01.834-.757L8.895 3h.988zm3.065 7.002L11.296 10a1.2 1.2 0 00-1.192 1.067l-.178 1.6a1.2 1.2 0 001.06 1.326l.066.005 1.652.002a1.2 1.2 0 001.192-1.067l.178-1.6a1.2 1.2 0 00-1.06-1.326l-.066-.005z" fill="#fff" fill-rule="evenodd"></path></svg>